<?xml version="1.0" encoding="UTF-8" standalone="no"?>
<!-- Created with Inkscape (http://www.inkscape.org/) -->
<svg xmlns:dc="http://purl.org/dc/elements/1.1/" xmlns:cc="http://creativecommons.org/ns#" xmlns:rdf="http://www.w3.org/1999/02/22-rdf-syntax-ns#" xmlns:svg="http://www.w3.org/2000/svg" xmlns="http://www.w3.org/2000/svg" xmlns:xlink="http://www.w3.org/1999/xlink" xmlns:sodipodi="http://sodipodi.sourceforge.net/DTD/sodipodi-0.dtd" xmlns:inkscape="http://www.inkscape.org/namespaces/inkscape" width="275" height="450" id="svg2" sodipodi:version="0.32" inkscape:version="0.46" version="1.0" sodipodi:docname="skineffect_reason.svg" inkscape:output_extension="org.inkscape.output.svg.inkscape">
  <defs id="defs4">
    <linearGradient id="linearGradient3274">
      <stop style="stop-color:#ff0000;stop-opacity:1;" offset="0" id="stop3276"/>
      <stop id="stop3282" offset="0.30000001" style="stop-color:#ff0000;stop-opacity:0;"/>
      <stop style="stop-color:#ff0000;stop-opacity:0;" offset="0.69999999" id="stop3284"/>
      <stop style="stop-color:#ff0000;stop-opacity:1;" offset="1" id="stop3278"/>
    </linearGradient>
    <linearGradient id="linearGradient3226">
      <stop style="stop-color:#000080;stop-opacity:1;" offset="0" id="stop3228"/>
      <stop style="stop-color:#000080;stop-opacity:0;" offset="1" id="stop3230"/>
    </linearGradient>
    <linearGradient id="linearGradient3194">
      <stop style="stop-color:#0000ff;stop-opacity:0" offset="0" id="stop3196"/>
      <stop style="stop-color:#0000ff;stop-opacity:1" offset="1" id="stop3198"/>
    </linearGradient>
    <inkscape:perspective sodipodi:type="inkscape:persp3d" inkscape:vp_x="0 : 526.18109 : 1" inkscape:vp_y="0 : 1000 : 0" inkscape:vp_z="744.09448 : 526.18109 : 1" inkscape:persp3d-origin="372.04724 : 350.78739 : 1" id="perspective10"/>
    <linearGradient inkscape:collect="always" xlink:href="#linearGradient3194" id="linearGradient3208" gradientUnits="userSpaceOnUse" x1="122.5" y1="125" x2="122.5" y2="190" gradientTransform="translate(12.5,0)"/>
    <linearGradient inkscape:collect="always" xlink:href="#linearGradient3194" id="linearGradient3216" gradientUnits="userSpaceOnUse" x1="122.5" y1="170" x2="122.5" y2="235" gradientTransform="translate(12.5,0)"/>
    <linearGradient inkscape:collect="always" xlink:href="#linearGradient3226" id="linearGradient3232" x1="135" y1="180" x2="135" y2="125" gradientUnits="userSpaceOnUse"/>
    <linearGradient inkscape:collect="always" xlink:href="#linearGradient3226" id="linearGradient3234" x1="135" y1="225" x2="135" y2="175" gradientUnits="userSpaceOnUse"/>
  </defs>
  <sodipodi:namedview id="base" pagecolor="#ffffff" bordercolor="#666666" borderopacity="1.0" inkscape:pageopacity="0.0" inkscape:pageshadow="2" inkscape:zoom="1.4142136" inkscape:cx="47.167108" inkscape:cy="228.01396" inkscape:document-units="px" inkscape:current-layer="layer1" showgrid="true" objecttolerance="11" gridtolerance="11" guidetolerance="11" showguides="true" inkscape:guide-bbox="true" inkscape:window-width="1280" inkscape:window-height="959" inkscape:window-x="0" inkscape:window-y="0">
    <inkscape:grid type="xygrid" id="grid2383" visible="true" enabled="true" spacingx="5px" spacingy="5px"/>
  </sodipodi:namedview>
  <metadata id="metadata7">
    <rdf:RDF>
      <cc:Work rdf:about="">
        <dc:format>image/svg+xml</dc:format>
        <dc:type rdf:resource="http://purl.org/dc/dcmitype/StillImage"/>
      </cc:Work>
    </rdf:RDF>
  </metadata>
  <g inkscape:label="Ebene 1" inkscape:groupmode="layer" id="layer1">
    <path style="opacity:1;fill:none;fill-opacity:1;stroke:#000000;stroke-width:2.5;stroke-linecap:round;stroke-linejoin:round;stroke-miterlimit:4;stroke-dasharray:7.5,7.5;stroke-dashoffset:0;stroke-opacity:1" d="M 25,387.5 C 25,387.5 25,387.5 25,387.5 C 25,387.5 25,387.5 25,387.5 C 25,366.8 75.4,350 137.5,350 C 199.6,350 250,366.8 250,387.5" id="path3168"/>
    <path style="opacity:1;fill:none;fill-opacity:1;stroke:#000000;stroke-width:2.5;stroke-linecap:round;stroke-linejoin:round;stroke-miterlimit:4;stroke-dasharray:none;stroke-dashoffset:0;stroke-opacity:1" d="M 250,387.5 C 250,387.5 250,387.5 250,387.5 C 250,408.2 199.6,425 137.5,425 C 75.4,425 25,408.2 25,387.5" id="path2385"/>
    <path sodipodi:type="arc" style="opacity:1;fill:none;fill-opacity:1;stroke:#000000;stroke-width:2.5;stroke-linecap:round;stroke-linejoin:round;stroke-miterlimit:4;stroke-dasharray:none;stroke-dashoffset:0;stroke-opacity:1" id="path3159" sodipodi:cx="212.5" sodipodi:cy="487.5" sodipodi:rx="112.5" sodipodi:ry="37.5" d="M 325,487.5 A 112.5,37.5 0 1 1 100,487.5 A 112.5,37.5 0 1 1 325,487.5 z" transform="matrix(-1,0,0,-1,350,550)"/>
    <path style="fill:none;fill-rule:evenodd;stroke:#000000;stroke-width:2.5;stroke-linecap:butt;stroke-linejoin:miter;stroke-miterlimit:4;stroke-dasharray:none;stroke-opacity:1" d="M 250,62.5 L 250,387.5" id="path3161" sodipodi:nodetypes="cc"/>
    <path style="fill:none;fill-rule:evenodd;stroke:#000000;stroke-width:2.5;stroke-linecap:butt;stroke-linejoin:miter;stroke-miterlimit:4;stroke-dasharray:none;stroke-opacity:1" d="M 25,387.5 L 25,62.5" id="path3163" sodipodi:nodetypes="cc"/>
    <path style="opacity:1;fill:none;fill-opacity:1;stroke:url(#linearGradient3208);stroke-width:2.50000000000000000;stroke-linecap:butt;stroke-linejoin:round;stroke-miterlimit:4;stroke-dasharray:none;stroke-dashoffset:0;stroke-opacity:1" d="M 62.5 175 C 62.5 175 62.5 175 62.5 175 C 62.5 161.2 96.1 150 137.5 150 C 178.9 150 212.5 161.2 212.5 175 " id="path3172"/>
    <path sodipodi:type="arc" style="opacity:1;fill:none;fill-opacity:1;stroke:#ff0000;stroke-width:2.5;stroke-linecap:round;stroke-linejoin:round;stroke-miterlimit:4;stroke-dasharray:none;stroke-dashoffset:0;stroke-opacity:1" id="path3176" sodipodi:cx="150" sodipodi:cy="225" sodipodi:rx="25" sodipodi:ry="25" d="M 175,225 A 25,25 0 1 1 125,225 A 25,25 0 1 1 175,225 z" transform="translate(-87.5,-50)"/>
    <path sodipodi:type="arc" style="opacity:1;fill:none;fill-opacity:1;stroke:#ff0000;stroke-width:2.5;stroke-linecap:round;stroke-linejoin:round;stroke-miterlimit:4;stroke-dasharray:none;stroke-dashoffset:0;stroke-opacity:1" id="path3178" sodipodi:cx="150" sodipodi:cy="225" sodipodi:rx="25" sodipodi:ry="25" d="M 175,225 A 25,25 0 1 1 125,225 A 25,25 0 1 1 175,225 z" transform="translate(62.5,-50)"/>
    <path style="opacity:1;fill:none;fill-opacity:1;stroke:url(#linearGradient3216);stroke-width:2.50000000000000000;stroke-linecap:butt;stroke-linejoin:round;stroke-miterlimit:4;stroke-dasharray:none;stroke-dashoffset:0;stroke-opacity:1" d="M 62.5 220 C 62.5 220 62.5 220 62.5 220 C 62.5 206.2 96.1 195 137.5 195 C 178.9 195 212.5 206.2 212.5 220 " id="path3210"/>
    <path sodipodi:type="arc" style="opacity:1;fill:none;fill-opacity:1;stroke:#ff0000;stroke-width:2.5;stroke-linecap:round;stroke-linejoin:round;stroke-miterlimit:4;stroke-dasharray:none;stroke-dashoffset:0;stroke-opacity:1" id="path3212" sodipodi:cx="150" sodipodi:cy="225" sodipodi:rx="25" sodipodi:ry="25" d="M 175,225 A 25,25 0 1 1 125,225 A 25,25 0 1 1 175,225 z" transform="translate(-87.5,-5)"/>
    <path sodipodi:type="arc" style="opacity:1;fill:none;fill-opacity:1;stroke:#ff0000;stroke-width:2.5;stroke-linecap:round;stroke-linejoin:round;stroke-miterlimit:4;stroke-dasharray:none;stroke-dashoffset:0;stroke-opacity:1" id="path3214" sodipodi:cx="150" sodipodi:cy="225" sodipodi:rx="25" sodipodi:ry="25" d="M 175,225 A 25,25 0 1 1 125,225 A 25,25 0 1 1 175,225 z" transform="translate(62.5,-5)"/>
    <path style="fill:url(#linearGradient3234);fill-opacity:1;fill-rule:evenodd;stroke:none;stroke-width:1px;stroke-linecap:butt;stroke-linejoin:miter;stroke-opacity:1" d="M 131.25,195 L 146.25,190 L 146.25,200 L 131.25,195 z" id="path3222"/>
    <path style="fill:url(#linearGradient3232);fill-opacity:1;fill-rule:evenodd;stroke:none;stroke-width:1px;stroke-linecap:butt;stroke-linejoin:miter;stroke-opacity:1" d="M 131.25,150 L 146.25,145 L 146.25,155 L 131.25,150 z" id="path3224"/>
    <path style="fill:#ff0000;fill-opacity:1;fill-rule:evenodd;stroke:none;stroke-width:1px;stroke-linecap:butt;stroke-linejoin:miter;stroke-opacity:1" d="M 37.5,211.25 L 42.5,226.25 L 32.5,226.25 L 37.5,211.25 z" id="path3236"/>
    <path style="fill:#ff0000;fill-opacity:1;fill-rule:evenodd;stroke:none;stroke-width:1px;stroke-linecap:butt;stroke-linejoin:miter;stroke-opacity:1" d="M 87.5,226.25 L 82.5,211.25 L 92.5,211.25 L 87.5,226.25 z" id="path3238"/>
    <path style="fill:#ff0000;fill-opacity:1;fill-rule:evenodd;stroke:none;stroke-width:1px;stroke-linecap:butt;stroke-linejoin:miter;stroke-opacity:1" d="M 37.5,168.75 L 42.5,183.75 L 32.5,183.75 L 37.5,168.75 z" id="path3240"/>
    <path style="fill:#ff0000;fill-opacity:1;fill-rule:evenodd;stroke:none;stroke-width:1px;stroke-linecap:butt;stroke-linejoin:miter;stroke-opacity:1" d="M 87.5,183.75 L 82.5,168.75 L 92.5,168.75 L 87.5,183.75 z" id="path3242"/>
    <path style="fill:#ff0000;fill-opacity:1;fill-rule:evenodd;stroke:none;stroke-width:1px;stroke-linecap:butt;stroke-linejoin:miter;stroke-opacity:1" d="M 187.5,183.75 L 182.5,168.75 L 192.5,168.75 L 187.5,183.75 z" id="path3244"/>
    <path style="fill:#ff0000;fill-opacity:1;fill-rule:evenodd;stroke:none;stroke-width:1px;stroke-linecap:butt;stroke-linejoin:miter;stroke-opacity:1" d="M 237.5,168.75 L 242.5,183.75 L 232.5,183.75 L 237.5,168.75 z" id="path3246"/>
    <path style="fill:#ff0000;fill-opacity:1;fill-rule:evenodd;stroke:none;stroke-width:1px;stroke-linecap:butt;stroke-linejoin:miter;stroke-opacity:1" d="M 187.5,228.75 L 182.5,213.75 L 192.5,213.75 L 187.5,228.75 z" id="path3248"/>
    <path style="fill:#ff0000;fill-opacity:1;fill-rule:evenodd;stroke:none;stroke-width:1px;stroke-linecap:butt;stroke-linejoin:miter;stroke-opacity:1" d="M 237.5,213.75 L 242.5,228.75 L 232.5,228.75 L 237.5,213.75 z" id="path3250"/>
    <path style="fill:#ff0000;fill-opacity:1;fill-rule:evenodd;stroke:none;stroke-width:1px;stroke-linecap:butt;stroke-linejoin:miter;stroke-opacity:1" d="M 62.5,281.25 L 67.5,296.25 L 57.5,296.25 L 62.5,281.25 z" id="path3252"/>
    <path style="fill:#ff0000;fill-opacity:1;fill-rule:evenodd;stroke:none;stroke-width:1px;stroke-linecap:butt;stroke-linejoin:miter;stroke-opacity:1" d="M 112.5,281.25 L 117.5,296.25 L 107.5,296.25 L 112.5,281.25 z" id="path3254"/>
    <path style="fill:#ff0000;fill-opacity:1;fill-rule:evenodd;stroke:none;stroke-width:1px;stroke-linecap:butt;stroke-linejoin:miter;stroke-opacity:1" d="M 162.5,281.25 L 167.5,296.25 L 157.5,296.25 L 162.5,281.25 z" id="path3256"/>
    <path style="fill:#ff0000;fill-opacity:1;fill-rule:evenodd;stroke:none;stroke-width:1px;stroke-linecap:butt;stroke-linejoin:miter;stroke-opacity:1" d="M 212.5,281.25 L 217.5,296.25 L 207.5,296.25 L 212.5,281.25 z" id="path3258"/>
    <path style="fill:#ff0000;fill-rule:evenodd;stroke:#ff0000;stroke-width:2.5;stroke-linecap:butt;stroke-linejoin:miter;stroke-miterlimit:4;stroke-dasharray:none;stroke-opacity:1" d="M 62.5,290 L 62.5,320" id="path3260" sodipodi:nodetypes="cc"/>
    <path style="fill:#ff0000;fill-rule:evenodd;stroke:#ff0000;stroke-width:2.5;stroke-linecap:butt;stroke-linejoin:miter;stroke-miterlimit:4;stroke-dasharray:none;stroke-opacity:1" d="M 112.5,290 L 112.5,320" id="path3262" sodipodi:nodetypes="cc"/>
    <path style="fill:#ff0000;fill-rule:evenodd;stroke:#ff0000;stroke-width:2.5;stroke-linecap:butt;stroke-linejoin:miter;stroke-miterlimit:4;stroke-dasharray:none;stroke-opacity:1" d="M 162.5,290 L 162.5,320" id="path3264" sodipodi:nodetypes="cc"/>
    <path style="fill:#ff0000;fill-rule:evenodd;stroke:#ff0000;stroke-width:2.5;stroke-linecap:butt;stroke-linejoin:miter;stroke-miterlimit:4;stroke-dasharray:none;stroke-opacity:1" d="M 212.5,290 L 212.5,320" id="path3266" sodipodi:nodetypes="cc"/>
    <text xml:space="preserve" style="font-size:28px;font-style:normal;font-variant:normal;font-weight:normal;font-stretch:normal;text-align:center;line-height:125%;writing-mode:lr-tb;text-anchor:middle;fill:#0000ff;fill-opacity:1;stroke:none;stroke-width:1px;stroke-linecap:butt;stroke-linejoin:miter;stroke-opacity:1;font-family:DejaVu Serif;-inkscape-font-specification:DejaVu Serif" x="172.89157" y="266.26505" id="text3268" sodipodi:linespacing="125%"><tspan sodipodi:role="line" id="tspan3270" x="172.89157" y="266.26505">H</tspan></text>
    <text xml:space="preserve" style="font-size:28px;font-style:normal;font-variant:normal;font-weight:normal;font-stretch:normal;text-align:center;line-height:125%;writing-mode:lr-tb;text-anchor:middle;fill:#ff0000;fill-opacity:1;stroke:none;stroke-width:1px;stroke-linecap:butt;stroke-linejoin:miter;stroke-opacity:1;font-family:DejaVu Serif;-inkscape-font-specification:DejaVu Serif" x="128.69345" y="320.59946" id="text3286" sodipodi:linespacing="125%"><tspan sodipodi:role="line" id="tspan3288" x="128.69345" y="320.59946" style="font-size:28px;font-style:normal;font-variant:normal;font-weight:normal;font-stretch:normal;text-align:center;line-height:125%;writing-mode:lr-tb;text-anchor:middle;font-family:DejaVu Serif;-inkscape-font-specification:DejaVu Serif">I</tspan></text>
    <text xml:space="preserve" style="font-size:28px;font-style:normal;font-variant:normal;font-weight:normal;font-stretch:normal;text-align:center;line-height:125%;writing-mode:lr;text-anchor:middle;fill:#ff0000;fill-opacity:1;stroke:none;stroke-width:1px;stroke-linecap:butt;stroke-linejoin:miter;stroke-opacity:1;font-family:DejaVu Serif;-inkscape-font-specification:DejaVu Serif" x="218.29498" y="141.80553" id="text3290" sodipodi:linespacing="125%"><tspan sodipodi:role="line" id="tspan3292" x="218.29498" y="141.80553">I</tspan></text>
    <text xml:space="preserve" style="font-size:20px;font-style:normal;font-variant:normal;font-weight:normal;font-stretch:normal;text-align:center;line-height:125%;writing-mode:lr-tb;text-anchor:middle;fill:#ff0000;fill-opacity:1;stroke:none;stroke-width:1px;stroke-linecap:butt;stroke-linejoin:miter;stroke-opacity:1;font-family:DejaVu Serif;-inkscape-font-specification:DejaVu Serif" x="232.86604" y="145.34105" id="text3294" sodipodi:linespacing="125%"><tspan sodipodi:role="line" id="tspan3296" x="232.86604" y="145.34105">w</tspan></text>
    <path style="opacity:1;fill:none;fill-opacity:1;stroke:url(#linearGradient3216);stroke-width:2.50000000000000000;stroke-linecap:butt;stroke-linejoin:round;stroke-miterlimit:4;stroke-dasharray:none;stroke-dashoffset:0;stroke-opacity:1" d="M 212.5 220 C 212.5 220 212.5 220 212.5 220 L 212.5 220 C 212.5 233.8 178.9 245 137.5 245 C 96.1 245 62.5 233.8 62.5 220 " id="path2437"/>
    <path style="opacity:1;fill:none;fill-opacity:1;stroke:url(#linearGradient3208);stroke-width:2.50000000000000000;stroke-linecap:butt;stroke-linejoin:round;stroke-miterlimit:4;stroke-dasharray:none;stroke-dashoffset:0;stroke-opacity:1" d="M 212.5 175 C 212.5 175 212.5 175 212.5 175 L 212.5 175 C 212.5 188.8 178.9 200 137.5 200 C 96.1 200 62.5 188.8 62.5 175 " id="path2442"/>
    <path style="fill:#0000ff;fill-opacity:1;fill-rule:evenodd;stroke:none;stroke-width:1px;stroke-linecap:butt;stroke-linejoin:miter;stroke-opacity:1" d="M 146.25,200 L 131.25,205 L 131.25,195 L 146.25,200 z" id="path3220"/>
    <path style="fill:#0000ff;fill-opacity:1;fill-rule:evenodd;stroke:none;stroke-width:1px;stroke-linecap:butt;stroke-linejoin:miter;stroke-opacity:1" d="M 146.25,245 L 131.25,250 L 131.25,240 L 146.25,245 z" id="path3218"/>
  </g>
</svg>